<?xml version="1.0" encoding="UTF-8" standalone="no"?>
<!-- Created with Inkscape (http://www.inkscape.org/) -->

<svg
   width="100.236mm"
   height="86.542847mm"
   viewBox="0 0 100.236 86.54285"
   version="1.1"
   id="svg18854"
   xml:space="preserve"
   inkscape:version="1.2 (dc2aedaf03, 2022-05-15)"
   sodipodi:docname="Ch2.4_Q3.svg"
   xmlns:inkscape="http://www.inkscape.org/namespaces/inkscape"
   xmlns:sodipodi="http://sodipodi.sourceforge.net/DTD/sodipodi-0.dtd"
   xmlns="http://www.w3.org/2000/svg"
   xmlns:svg="http://www.w3.org/2000/svg"><sodipodi:namedview
     id="namedview18856"
     pagecolor="#ffffff"
     bordercolor="#000000"
     borderopacity="0.25"
     inkscape:showpageshadow="2"
     inkscape:pageopacity="0.0"
     inkscape:pagecheckerboard="0"
     inkscape:deskcolor="#d1d1d1"
     inkscape:document-units="mm"
     showgrid="false"
     inkscape:zoom="5.0495044"
     inkscape:cx="145.45982"
     inkscape:cy="89.315696"
     inkscape:window-width="2560"
     inkscape:window-height="1369"
     inkscape:window-x="1912"
     inkscape:window-y="-8"
     inkscape:window-maximized="1"
     inkscape:current-layer="layer1" /><defs
     id="defs18851"><clipPath
       clipPathUnits="userSpaceOnUse"
       id="clipPath18991"><path
         d="M 0,0 H 504.567 V 720 H 0 Z"
         id="path18989" /></clipPath><clipPath
       clipPathUnits="userSpaceOnUse"
       id="clipPath19125"><path
         d="m 220.9957,534.8742 h 76.51002 V 655.2264 H 220.9957 Z"
         id="path19123" /></clipPath><clipPath
       clipPathUnits="userSpaceOnUse"
       id="clipPath19137"><path
         d="m 97.28869,511.6391 h 313.2149 V 656.3516 H 97.28869 Z"
         id="path19135" /></clipPath><clipPath
       clipPathUnits="userSpaceOnUse"
       id="clipPath19209"><path
         d="M 197.6165,511.6391 H 309.4834 V 656.3516 H 197.6165 Z"
         id="path19207" /></clipPath><clipPath
       clipPathUnits="userSpaceOnUse"
       id="clipPath19223"><path
         d="m 220.9957,534.8742 h 76.51002 V 655.2264 H 220.9957 Z"
         id="path19221" /></clipPath><clipPath
       clipPathUnits="userSpaceOnUse"
       id="clipPath19247"><path
         d="m 332.8684,534.8742 h 76.51002 V 655.2264 H 332.8684 Z"
         id="path19245" /></clipPath><clipPath
       clipPathUnits="userSpaceOnUse"
       id="clipPath19259"><path
         d="m 97.28869,511.6391 h 313.2149 V 656.3516 H 97.28869 Z"
         id="path19257" /></clipPath><clipPath
       clipPathUnits="userSpaceOnUse"
       id="clipPath19333"><path
         d="M 309.4833,511.6391 H 410.5035 V 656.3516 H 309.4833 Z"
         id="path19331" /></clipPath><clipPath
       clipPathUnits="userSpaceOnUse"
       id="clipPath19405"><path
         d="M 0,0 H 504.567 V 720 H 0 Z"
         id="path19403" /></clipPath><clipPath
       clipPathUnits="userSpaceOnUse"
       id="clipPath627"><path
         d="M 4243.4395,511.17504 H 5557.2094 V 2577.7683 H 4243.4395 Z"
         id="path629"
         style="stroke-width:17.1712" /></clipPath><clipPath
       clipPathUnits="userSpaceOnUse"
       id="clipPath633"><path
         d="M 6.0842876e-6,-172.17918 H 1313.7699 V 1894.414 H 6.0842876e-6 Z"
         id="path635"
         style="stroke-width:17.1712" /></clipPath><clipPath
       clipPathUnits="userSpaceOnUse"
       id="clipPath641"><path
         d="M -878.0105,-1870.7144 H 435.7594 V 195.87885 H -878.0105 Z"
         id="path643"
         style="stroke-width:17.1712" /></clipPath><clipPath
       clipPathUnits="userSpaceOnUse"
       id="clipPath647"><path
         d="M -48.640861,-1873.1853 H 1265.129 V 193.4079 H -48.640861 Z"
         id="path649"
         style="stroke-width:17.1712" /></clipPath><clipPath
       clipPathUnits="userSpaceOnUse"
       id="clipPath653"><path
         d="M -878.0105,-1772.8247 H 435.7594 V 293.76847 H -878.0105 Z"
         id="path655"
         style="stroke-width:17.1712" /></clipPath><clipPath
       clipPathUnits="userSpaceOnUse"
       id="clipPath661"><path
         d="M -48.640861,-81.812211 H 1265.129 V 1984.781 H -48.640861 Z"
         id="path663"
         style="stroke-width:17.1712" /></clipPath><clipPath
       clipPathUnits="userSpaceOnUse"
       id="clipPath667"><path
         d="M -694.08962,2.0280968e-6 H 619.68029 V 2066.5932 H -694.08962 Z"
         id="path669"
         style="stroke-width:17.1712" /></clipPath><clipPath
       clipPathUnits="userSpaceOnUse"
       id="clipPath673"><path
         d="M -878.0105,-1968.604 H 435.7594 V 97.98917 H -878.0105 Z"
         id="path675"
         style="stroke-width:17.1712" /></clipPath><clipPath
       clipPathUnits="userSpaceOnUse"
       id="clipPath825"><path
         d="M -48.637253,-113.45017 H 1265.1417 V 1953.143 H -48.637253 Z"
         id="path827"
         style="stroke-width:17.1712" /></clipPath><clipPath
       clipPathUnits="userSpaceOnUse"
       id="clipPath831"><path
         d="M -48.637253,-1705.5342 H 1265.1417 V 361.05905 H -48.637253 Z"
         id="path833"
         style="stroke-width:17.1712" /></clipPath><clipPath
       clipPathUnits="userSpaceOnUse"
       id="clipPath837"><path
         d="M 6.0842883e-5,-841.94406 H 1313.779 V 1224.6492 H 6.0842883e-5 Z"
         id="path839"
         style="stroke-width:17.1712" /></clipPath><clipPath
       clipPathUnits="userSpaceOnUse"
       id="clipPath843"><path
         d="M -470.69168,2.0280968e-6 H 843.08724 V 2066.5932 H -470.69168 Z"
         id="path845"
         style="stroke-width:17.1712" /></clipPath><clipPath
       clipPathUnits="userSpaceOnUse"
       id="clipPath1081"><path
         d="M -625.8756,-398.97495 H 4752.4046 V 2085.9143 H -625.8756 Z"
         id="path1083"
         style="stroke-width:17.1712" /></clipPath><clipPath
       clipPathUnits="userSpaceOnUse"
       id="clipPath1087"><path
         d="M -203.30084,-2006.319 H 5174.9793 V 478.57028 H -203.30084 Z"
         id="path1089"
         style="stroke-width:17.1712" /></clipPath><clipPath
       clipPathUnits="userSpaceOnUse"
       id="clipPath1093"><path
         d="M -203.30084,-475.43319 H 5174.9793 V 2009.4561 H -203.30084 Z"
         id="path1095"
         style="stroke-width:17.1712" /></clipPath><clipPath
       clipPathUnits="userSpaceOnUse"
       id="clipPath1101"><path
         d="M -203.30084,-398.97495 H 5174.9793 V 2085.9143 H -203.30084 Z"
         id="path1103"
         style="stroke-width:17.1712" /></clipPath><clipPath
       clipPathUnits="userSpaceOnUse"
       id="clipPath1107"><path
         d="M -908.81934,-398.97495 H 4469.4608 V 2085.9143 H -908.81934 Z"
         id="path1109"
         style="stroke-width:17.1712" /></clipPath><clipPath
       clipPathUnits="userSpaceOnUse"
       id="clipPath1113"><path
         d="M -1191.6706,-398.97495 H 4186.6096 V 2085.9143 h -5378.2802 z"
         id="path1115"
         style="stroke-width:17.1712" /></clipPath><clipPath
       clipPathUnits="userSpaceOnUse"
       id="clipPath1119"><path
         d="M -203.30084,-1240.919 H 5174.9793 V 1243.9704 H -203.30084 Z"
         id="path1121"
         style="stroke-width:17.1712" /></clipPath><clipPath
       clipPathUnits="userSpaceOnUse"
       id="clipPath1125"><path
         d="M -203.30084,-1623.619 H 5174.9793 V 861.27027 H -203.30084 Z"
         id="path1127"
         style="stroke-width:17.1712" /></clipPath><clipPath
       clipPathUnits="userSpaceOnUse"
       id="clipPath1133"><path
         d="M -203.30084,-398.97495 H 5174.9793 V 2085.9143 H -203.30084 Z"
         id="path1135"
         style="stroke-width:17.1712" /></clipPath><clipPath
       clipPathUnits="userSpaceOnUse"
       id="clipPath1139"><path
         d="M -203.30084,-475.43319 H 5174.9793 V 2009.4561 H -203.30084 Z"
         id="path1141"
         style="stroke-width:17.1712" /></clipPath><clipPath
       clipPathUnits="userSpaceOnUse"
       id="clipPath1145"><path
         d="M -48.637253,-903.15429 H 1265.1417 V 1163.4389 H -48.637253 Z"
         id="path1147"
         style="stroke-width:17.1712" /></clipPath><clipPath
       clipPathUnits="userSpaceOnUse"
       id="clipPath1153"><path
         d="M -251.93816,-398.97495 H 5126.342 V 2085.9143 H -251.93816 Z"
         id="path1155"
         style="stroke-width:17.1712" /></clipPath><clipPath
       clipPathUnits="userSpaceOnUse"
       id="clipPath1159"><path
         d="M -203.30084,-858.12801 H 5174.9793 V 1626.7613 H -203.30084 Z"
         id="path1161"
         style="stroke-width:17.1712" /></clipPath><clipPath
       clipPathUnits="userSpaceOnUse"
       id="clipPath1165"><path
         d="M -203.30084,-2389.0104 H 5174.9793 V 95.878868 H -203.30084 Z"
         id="path1167"
         style="stroke-width:17.1712" /></clipPath><clipPath
       clipPathUnits="userSpaceOnUse"
       id="clipPath17218"><path
         d="M -74.618696,-1613.9645 H 1939.642 V 766.84158 H -74.618696 Z"
         id="path17220"
         style="stroke-width:17.9653" /></clipPath><clipPath
       clipPathUnits="userSpaceOnUse"
       id="clipPath17097"><path
         d="M 0,-198.40383 H 2014.2608 V 2182.4006 H 0 Z"
         id="path17099"
         style="stroke-width:18.0766" /></clipPath></defs><g
     inkscape:label="Ebene 1"
     inkscape:groupmode="layer"
     id="layer1"
     transform="translate(-99.756011,-47.865535)"><path
       d="m 0,0 24.832,-86.86 24.832,-84.91 24.836,-80.99 24.832,-75.84 24.832,-71.2 24.73,-65.741 24.832,-61 24.832,-55.949 24.836,-50.078 24.832,-43.586 24.832,-36.375 24.832,-29.367 24.832,-22.567 24.836,-16.691 24.832,-12.364 24.832,-8.863 24.832,-6.387 24.836,-4.535 24.832,-3.297 24.731,-2.371 24.832,-1.648 24.832,-1.238 24.835,-0.719 24.83,-0.617 24.83,-0.313 24.84,-0.203 24.83,-0.207 24.83,-0.102 24.84,-0.105 h 49.66 l 24.83,-0.102 h 24.84 l 24.73,0.102 h 24.83 l 24.83,0.105 24.84,0.102 24.83,0.102 24.83,0.207 24.84,0.308 24.83,0.309 24.83,0.414 24.83,0.516 24.84,0.41 24.83,0.621 24.83,0.617 24.83,0.824 24.84,1.235 24.73,1.961"
       style="fill:none;stroke:#29d0d0;stroke-width:15.456;stroke-linecap:round;stroke-linejoin:round;stroke-miterlimit:10;stroke-dasharray:none;stroke-opacity:1"
       id="path19007"
       transform="matrix(0.02054472,0,0,-0.02054472,107.44286,74.17866)"
       clip-path="url(#clipPath1145)" /><path
       d="M 0,0 H 988.369"
       style="fill:none;stroke:#000000;stroke-width:7.728;stroke-linecap:round;stroke-linejoin:round;stroke-miterlimit:10;stroke-dasharray:none;stroke-opacity:1"
       id="path19019"
       transform="matrix(0.02054472,0,0,-0.02054472,106.44362,92.733712)"
       clip-path="url(#clipPath1101)" /><path
       d="M 0,0 V -49.047"
       style="fill:none;stroke:#000000;stroke-width:7.728;stroke-linecap:round;stroke-linejoin:round;stroke-miterlimit:10;stroke-dasharray:none;stroke-opacity:1"
       id="path19023"
       transform="matrix(0.02054472,0,0,-0.02054472,107.44286,92.733712)"
       clip-path="url(#clipPath1153)" /><path
       d="M 0,0 V -49.047"
       style="fill:none;stroke:#000000;stroke-width:7.728;stroke-linecap:round;stroke-linejoin:round;stroke-miterlimit:10;stroke-dasharray:none;stroke-opacity:1"
       id="path19027"
       transform="matrix(0.02054472,0,0,-0.02054472,115.1253,92.733712)"
       clip-path="url(#clipPath1081)" /><path
       d="M 0,0 V -49.047"
       style="fill:none;stroke:#000000;stroke-width:7.728;stroke-linecap:round;stroke-linejoin:round;stroke-miterlimit:10;stroke-dasharray:none;stroke-opacity:1"
       id="path19031"
       transform="matrix(0.02054472,0,0,-0.02054472,120.9383,92.733712)"
       clip-path="url(#clipPath1107)" /><path
       d="M 0,0 V -49.047"
       style="fill:none;stroke:#000000;stroke-width:7.728;stroke-linecap:round;stroke-linejoin:round;stroke-miterlimit:10;stroke-dasharray:none;stroke-opacity:1"
       id="path19035"
       transform="matrix(0.02054472,0,0,-0.02054472,126.7494,92.733712)"
       clip-path="url(#clipPath1113)" /><text
       xml:space="preserve"
       style="font-variant:normal;font-weight:normal;font-size:1.6935px;font-family:Arial;-inkscape-font-specification:Arial;writing-mode:lr-tb;fill:#000000;fill-opacity:1;fill-rule:nonzero;stroke:none;stroke-width:0.205447"
       id="text19041"
       x="106.97201"
       y="96.35585"><tspan
         x="106.97201 114.65424 119.99639 120.93797 125.80713 126.74872"
         y="96.35585"
         sodipodi:role="line"
         id="tspan19039"
         style="stroke-width:0.205447">251020</tspan></text><path
       d="M 0,0 V 1913.577"
       style="fill:none;stroke:#000000;stroke-width:7.728;stroke-linecap:round;stroke-linejoin:round;stroke-miterlimit:10;stroke-dasharray:none;stroke-opacity:1"
       id="path19045"
       transform="matrix(0.02054472,0,0,-0.02054472,106.44362,91.162899)"
       clip-path="url(#clipPath1093)" /><path
       d="M 0,0 H -49.047"
       style="fill:none;stroke:#000000;stroke-width:7.728;stroke-linecap:round;stroke-linejoin:round;stroke-miterlimit:10;stroke-dasharray:none;stroke-opacity:1"
       id="path19049"
       transform="matrix(0.02054472,0,0,-0.02054472,106.44362,91.162899)"
       clip-path="url(#clipPath1139)" /><path
       d="M 0,0 H -49.047"
       style="fill:none;stroke:#000000;stroke-width:7.728;stroke-linecap:round;stroke-linejoin:round;stroke-miterlimit:10;stroke-dasharray:none;stroke-opacity:1"
       id="path19053"
       transform="matrix(0.02054472,0,0,-0.02054472,106.44362,83.300541)"
       clip-path="url(#clipPath1159)" /><path
       d="M 0,0 H -49.047"
       style="fill:none;stroke:#000000;stroke-width:7.728;stroke-linecap:round;stroke-linejoin:round;stroke-miterlimit:10;stroke-dasharray:none;stroke-opacity:1"
       id="path19057"
       transform="matrix(0.02054472,0,0,-0.02054472,106.44362,75.436207)"
       clip-path="url(#clipPath1119)" /><path
       d="M 0,0 H -49.047"
       style="fill:none;stroke:#000000;stroke-width:7.728;stroke-linecap:round;stroke-linejoin:round;stroke-miterlimit:10;stroke-dasharray:none;stroke-opacity:1"
       id="path19061"
       transform="matrix(0.02054472,0,0,-0.02054472,106.44362,67.573743)"
       clip-path="url(#clipPath1125)" /><path
       d="M 0,0 H -49.047"
       style="fill:none;stroke:#000000;stroke-width:7.728;stroke-linecap:round;stroke-linejoin:round;stroke-miterlimit:10;stroke-dasharray:none;stroke-opacity:1"
       id="path19065"
       transform="matrix(0.02054472,0,0,-0.02054472,106.44362,59.711279)"
       clip-path="url(#clipPath1087)" /><path
       d="M 0,0 H -49.047"
       style="fill:none;stroke:#000000;stroke-width:7.728;stroke-linecap:round;stroke-linejoin:round;stroke-miterlimit:10;stroke-dasharray:none;stroke-opacity:1"
       id="path19069"
       transform="matrix(0.02054472,0,0,-0.02054472,106.44362,51.848991)"
       clip-path="url(#clipPath1165)" /><text
       xml:space="preserve"
       transform="rotate(-90)"
       style="font-variant:normal;font-weight:normal;font-size:1.6935px;font-family:Arial;-inkscape-font-specification:Arial;writing-mode:lr-tb;fill:#000000;fill-opacity:1;fill-rule:nonzero;stroke:none;stroke-width:0.205447"
       id="text19075"
       x="-92.33989"
       y="104.02816"><tspan
         x="-92.33989 -91.398308 -90.927513 -84.477814 -83.536224 -83.06543 -76.613701 -75.672112 -75.201324 -68.751625 -67.810036 -67.339241 -60.889545 -59.947956 -59.477161 -53.027466 -52.085876 -51.615086"
         y="104.02816"
         sodipodi:role="line"
         id="tspan19073"
         style="stroke-width:0.205447">0.00.51.01.52.02.5</tspan></text><path
       d="M 0,0 H 1313.769 V 2066.594 H 0 V 0"
       style="fill:none;stroke:#000000;stroke-width:7.728;stroke-linecap:round;stroke-linejoin:round;stroke-miterlimit:10;stroke-dasharray:none;stroke-opacity:1"
       id="path19079"
       transform="matrix(0.02054472,0,0,-0.02054472,106.44362,92.733712)"
       clip-path="url(#clipPath1133)" /><text
       xml:space="preserve"
       style="font-variant:normal;font-weight:normal;font-size:1.6935px;font-family:Arial;-inkscape-font-specification:Arial;writing-mode:lr-tb;fill:#000000;fill-opacity:1;fill-rule:nonzero;stroke:none;stroke-width:0.205447"
       id="text19093"
       x="116.45689"
       y="100.38015"><tspan
         x="116.45689 117.49162 117.86758 118.75836 119.60511 119.98106 120.92265 121.29861 121.67457 122.05052 122.52132"
         y="100.38015"
         sodipodi:role="line"
         id="tspan19091"
         style="stroke-width:0.205447">Flexibility</tspan></text><path
       d="m 0,0 24.832,0.102 24.832,0.617 24.836,1.133 24.832,1.546 24.832,1.957 24.73,2.27 24.832,2.473 24.832,2.679 24.836,2.782 24.832,2.781 24.832,3.09 24.832,3.195 24.832,3.402 24.836,3.707 24.832,3.813 24.832,4.226 24.832,4.43 24.836,4.738 24.832,5.051 24.731,5.461 24.832,5.77 24.832,6.183 24.835,6.594 24.83,7.008 24.83,7.418 24.84,7.832 24.83,8.347 24.83,8.965 24.84,9.582 24.83,10.2 24.83,10.82 24.83,11.644 24.84,12.364 24.73,13.394 24.83,14.531 24.83,15.969 24.84,17.727 24.83,19.988 24.83,22.668 24.84,26.379 24.83,30.5 24.83,35.758 24.83,42.241 24.84,50.39 24.83,60.79 24.83,75.74 24.83,98.1 24.84,136.83 24.73,212.78"
       style="fill:none;stroke:#ff9233;stroke-width:15.456;stroke-linecap:round;stroke-linejoin:round;stroke-miterlimit:10;stroke-dasharray:none;stroke-opacity:1"
       id="path19105"
       transform="matrix(0.02054472,0,0,-0.02054472,107.44286,90.40291)"
       clip-path="url(#clipPath825)" /><path
       d="m 0,0 24.832,-86.66 24.832,-84.28 24.836,-79.96 24.832,-74.29 24.832,-69.25 24.73,-63.57 24.832,-58.43 24.832,-53.27 24.836,-47.4 24.832,-40.7 24.832,-33.39 24.832,-26.07 24.832,-19.16 24.836,-13.09 24.832,-8.45 24.832,-4.63 24.832,-1.96 24.836,0.1 24.832,1.86 24.731,2.98 24.832,4.12 24.832,5.05 24.835,5.78 24.83,6.48 24.83,7.12 24.84,7.62 24.83,8.14 24.83,8.86 24.84,9.48 24.83,10.2 24.83,10.72 24.83,11.64 24.84,12.37 24.73,13.39 24.83,14.64 24.83,16.07 24.84,17.82 24.83,20.1 24.83,22.98 24.84,26.58 24.83,30.81 24.83,36.17 24.83,42.66 24.84,50.9 24.83,61.41 24.83,76.35 24.83,98.93 24.84,137.97 24.73,214.84"
       style="fill:none;stroke:#ad2323;stroke-width:15.456;stroke-linecap:round;stroke-linejoin:round;stroke-miterlimit:10;stroke-dasharray:none;stroke-opacity:1"
       id="path19109"
       transform="matrix(0.02054472,0,0,-0.02054472,107.44286,57.69399)"
       clip-path="url(#clipPath831)" /><path
       d="M 0,0 H 1313.769"
       style="fill:none;stroke:#000000;stroke-width:7.728;stroke-linecap:round;stroke-linejoin:round;stroke-miterlimit:10;stroke-dasharray:23.184, 38.64;stroke-dashoffset:0;stroke-opacity:1"
       id="path19113"
       transform="matrix(0.02054472,0,0,-0.02054472,106.44362,75.436207)"
       clip-path="url(#clipPath837)" /><path
       d="M 0,0 V 2066.594"
       style="fill:none;stroke:#000000;stroke-width:7.728;stroke-linecap:round;stroke-linejoin:round;stroke-miterlimit:10;stroke-dasharray:0, 30.912;stroke-dashoffset:0;stroke-opacity:1"
       id="path19117"
       transform="matrix(0.02054472,0,0,-0.02054472,116.11385,92.733712)"
       clip-path="url(#clipPath843)"
       sodipodi:nodetypes="cc" /><path
       d="M 0,0 H 146.94"
       style="fill:none;stroke:#ad2323;stroke-width:23.184;stroke-linecap:round;stroke-linejoin:round;stroke-miterlimit:10;stroke-dasharray:none;stroke-opacity:1"
       id="path19371"
       transform="matrix(0.02054472,0,0,-0.02054472,136.39907,56.205313)"
       clip-path="url(#clipPath673)" /><path
       d="M 0,0 H 146.94"
       style="fill:none;stroke:#29d0d0;stroke-width:23.184;stroke-linecap:round;stroke-linejoin:round;stroke-miterlimit:10;stroke-dasharray:none;stroke-opacity:1"
       id="path19375"
       transform="matrix(0.02054472,0,0,-0.02054472,136.39907,50.278927)"
       clip-path="url(#clipPath641)" /><path
       d="M 0,0 H 146.94"
       style="fill:none;stroke:#ff9233;stroke-width:23.184;stroke-linecap:round;stroke-linejoin:round;stroke-miterlimit:10;stroke-dasharray:none;stroke-opacity:1"
       id="path19379"
       transform="matrix(0.02054472,0,0,-0.02054472,136.39907,52.290039)"
       clip-path="url(#clipPath653)" /><text
       xml:space="preserve"
       style="font-variant:normal;font-weight:normal;font-size:1.6935px;font-family:Arial;-inkscape-font-specification:Arial;writing-mode:lr-tb;fill:#000000;fill-opacity:1;fill-rule:nonzero;stroke:none;stroke-width:0.205447"
       id="text19385"
       x="140.92738"
       y="56.813015"><tspan
         sodipodi:role="line"
         id="tspan19383"
         style="stroke-width:0.205447"
         x="140.92738"
         y="56.813015">test MSE</tspan></text><text
       xml:space="preserve"
       style="font-variant:normal;font-weight:normal;font-size:1.6935px;font-family:Arial;-inkscape-font-specification:Arial;writing-mode:lr-tb;fill:#000000;fill-opacity:1;fill-rule:nonzero;stroke:none;stroke-width:0.205447"
       id="text19391"
       x="140.92738"
       y="50.886631"><tspan
         x="140.92738 142.05696 142.43292 143.37448"
         y="50.886631"
         sodipodi:role="line"
         id="tspan19389"
         style="stroke-width:0.205447">Bias</tspan></text><text
       xml:space="preserve"
       style="font-variant:normal;font-weight:normal;font-size:1.6935px;font-family:Arial;-inkscape-font-specification:Arial;writing-mode:lr-tb;fill:#000000;fill-opacity:1;fill-rule:nonzero;stroke:none;stroke-width:0.205447"
       id="text19397"
       x="140.92738"
       y="52.899803"><tspan
         x="140.92738 141.9384 142.88"
         y="52.899803"
         sodipodi:role="line"
         id="tspan19395"
         style="stroke-width:0.205447">Var</tspan></text><text
       xml:space="preserve"
       style="font-size:1.33989px;font-family:Arial;-inkscape-font-specification:Arial;fill:#000000;stroke-width:0.158352"
       x="134.30495"
       y="75.918282"
       id="text733"><tspan
         sodipodi:role="line"
         id="tspan731"
         x="134.30495"
         y="75.918282"
         style="stroke-width:0.158352">= 1, because it's simulated data</tspan></text><text
       xml:space="preserve"
       style="font-size:1.11187px;font-family:Arial;-inkscape-font-specification:Arial;fill:#000000;stroke-width:0.131405"
       x="107.92445"
       y="48.675007"
       id="text787"><tspan
         sodipodi:role="line"
         id="tspan785"
         x="107.92445"
         y="48.675007"
         style="stroke-width:0.131405">flexibility for the smallest MSE</tspan></text><path
       style="fill:none;stroke:#000000;stroke-width:0.059;stroke-dasharray:none;stroke-dashoffset:0"
       d="M 116.11751,50.296593 V 49.203591"
       id="path1232" /><rect
       style="fill:none;stroke:#000000;stroke-width:0.059;stroke-dasharray:none;stroke-dashoffset:0"
       id="rect2567"
       width="25.657623"
       height="10.593457"
       x="135.30536"
       y="48.98164" /><text
       xml:space="preserve"
       style="font-size:1.36338px;font-family:Arial;-inkscape-font-specification:Arial;fill:#000000;stroke:none;stroke-width:0.0175399;stroke-dasharray:none;stroke-dashoffset:0"
       x="-78.052757"
       y="100.74859"
       id="text2571"
       transform="rotate(-90)"><tspan
         sodipodi:role="line"
         id="tspan2569"
         style="fill:#000000;stroke:none;stroke-width:0.0175399"
         x="-78.052757"
         y="100.74859">Mean Squared Error</tspan></text><path
       d="m 0,0 38.03,-80.51 38.04,-77.6 38.11,-72.94 38.03,-67.42 38.11,-62.55 38.04,-57.45 38.04,-53.53 38.11,-49.82 38.03,-45.53 38.04,-40.72 38.11,-35.06 38.04,-29.45 38.03,-24 38.11,-19.49 38.04,-16.22 38.03,-13.75 38.11,-12.21 38.04,-11.28 38.11,-10.83 38.03,-10.48 38.04,-10.47 38.11,-10.62 38.04,-10.84 38.03,-11.27 38.11,-11.63 38.04,-12.29 38.04,-12.81 38.1,-13.45 38.04,-14.33 38.04,-15.05 38.1,-15.78 38.04,-16.95 38.11,-17.74 38.04,-18.91 38.03,-20.29 38.11,-21.53 38.04,-22.91 38.03,-24.36 38.11,-25.75 38.04,-27.49 38.04,-28.8 38.11,-30.25 38.03,-31.57 38.04,-32.58 38.11,-33.24 38.03,-33.81 38.11,-34.112 38.04,-33.89 38.03,-33.313"
       style="fill:none;stroke:#cd3333;stroke-width:10.8994;stroke-linecap:round;stroke-linejoin:round;stroke-miterlimit:10;stroke-dasharray:10.8994, 32.6981;stroke-dashoffset:0;stroke-opacity:1"
       id="path10913"
       transform="matrix(0.0141992,0,0,-0.01350983,106.74409,66.686408)"
       clip-path="url(#clipPath17218)" /><path
       d="M -5.2187303,-7.7122838 H 200.74444"
       style="fill:none;stroke:#cd3333;stroke-width:10.8994;stroke-linecap:round;stroke-linejoin:round;stroke-miterlimit:10;stroke-dasharray:10.8994, 32.6981;stroke-dashoffset:0;stroke-opacity:1"
       id="path3114"
       transform="matrix(0.0141992,0,0,-0.01350983,136.54323,54.065275)"
       clip-path="url(#clipPath17218)"
       sodipodi:nodetypes="cc" /><text
       xml:space="preserve"
       style="font-variant:normal;font-weight:normal;font-size:1.6935px;font-family:Arial;-inkscape-font-specification:Arial;writing-mode:lr-tb;fill:#000000;fill-opacity:1;fill-rule:nonzero;stroke:none;stroke-width:0.205447"
       id="text3118"
       x="140.92738"
       y="54.696342"><tspan
         sodipodi:role="line"
         id="tspan3116"
         style="stroke-width:0.205447"
         x="140.92738"
         y="54.696342">training MSE</tspan></text><path
       d="M 0,0 H 163.52482"
       style="fill:none;stroke:#000000;stroke-width:7.728;stroke-linecap:round;stroke-linejoin:round;stroke-miterlimit:10;stroke-dasharray:23.184, 38.64;stroke-dashoffset:0;stroke-opacity:1"
       id="path3120"
       transform="matrix(0.02054472,0,0,-0.02054472,136.36075,57.963329)"
       clip-path="url(#clipPath837)"
       sodipodi:nodetypes="cc" /><text
       xml:space="preserve"
       style="font-variant:normal;font-weight:normal;font-size:1.6935px;font-family:Arial;-inkscape-font-specification:Arial;writing-mode:lr-tb;fill:#000000;fill-opacity:1;fill-rule:nonzero;stroke:none;stroke-width:0.205447"
       id="text3124"
       x="140.92738"
       y="58.92968"><tspan
         sodipodi:role="line"
         id="tspan3122"
         style="stroke-width:0.205447"
         x="140.92738"
         y="58.92968">Bayes (irreduceble) error</tspan></text><text
       xml:space="preserve"
       style="font-size:1.13723px;font-family:Arial;-inkscape-font-specification:Arial;fill:#000000;stroke:none;stroke-width:0.0146304;stroke-dasharray:none;stroke-dashoffset:0"
       x="158.09933"
       y="100.16284"
       id="text3254"><tspan
         sodipodi:role="line"
         id="tspan3252"
         style="stroke-width:0.0146304"
         x="158.09933"
         y="100.16284">[ISL]</tspan></text></g></svg>
