<?xml version="1.0" encoding="UTF-8" standalone="no"?>
<!-- Created with Inkscape (http://www.inkscape.org/) -->

<svg
   width="139.03911mm"
   height="120.0451mm"
   viewBox="0 0 139.03911 120.04511"
   version="1.1"
   id="svg18854"
   xml:space="preserve"
   inkscape:version="1.2 (dc2aedaf03, 2022-05-15)"
   sodipodi:docname="Ch2.4_Q3.svg"
   xmlns:inkscape="http://www.inkscape.org/namespaces/inkscape"
   xmlns:sodipodi="http://sodipodi.sourceforge.net/DTD/sodipodi-0.dtd"
   xmlns="http://www.w3.org/2000/svg"
   xmlns:svg="http://www.w3.org/2000/svg"><sodipodi:namedview
     id="namedview18856"
     pagecolor="#ffffff"
     bordercolor="#000000"
     borderopacity="0.25"
     inkscape:showpageshadow="2"
     inkscape:pageopacity="0.0"
     inkscape:pagecheckerboard="0"
     inkscape:deskcolor="#d1d1d1"
     inkscape:document-units="mm"
     showgrid="false"
     inkscape:zoom="2.5247522"
     inkscape:cx="190.31571"
     inkscape:cy="236.06277"
     inkscape:window-width="2560"
     inkscape:window-height="1369"
     inkscape:window-x="1912"
     inkscape:window-y="-8"
     inkscape:window-maximized="1"
     inkscape:current-layer="layer1" /><defs
     id="defs18851"><clipPath
       clipPathUnits="userSpaceOnUse"
       id="clipPath18991"><path
         d="M 0,0 H 504.567 V 720 H 0 Z"
         id="path18989" /></clipPath><clipPath
       clipPathUnits="userSpaceOnUse"
       id="clipPath19125"><path
         d="m 220.9957,534.8742 h 76.51002 V 655.2264 H 220.9957 Z"
         id="path19123" /></clipPath><clipPath
       clipPathUnits="userSpaceOnUse"
       id="clipPath19137"><path
         d="m 97.28869,511.6391 h 313.2149 V 656.3516 H 97.28869 Z"
         id="path19135" /></clipPath><clipPath
       clipPathUnits="userSpaceOnUse"
       id="clipPath19209"><path
         d="M 197.6165,511.6391 H 309.4834 V 656.3516 H 197.6165 Z"
         id="path19207" /></clipPath><clipPath
       clipPathUnits="userSpaceOnUse"
       id="clipPath19223"><path
         d="m 220.9957,534.8742 h 76.51002 V 655.2264 H 220.9957 Z"
         id="path19221" /></clipPath><clipPath
       clipPathUnits="userSpaceOnUse"
       id="clipPath19247"><path
         d="m 332.8684,534.8742 h 76.51002 V 655.2264 H 332.8684 Z"
         id="path19245" /></clipPath><clipPath
       clipPathUnits="userSpaceOnUse"
       id="clipPath19259"><path
         d="m 97.28869,511.6391 h 313.2149 V 656.3516 H 97.28869 Z"
         id="path19257" /></clipPath><clipPath
       clipPathUnits="userSpaceOnUse"
       id="clipPath19333"><path
         d="M 309.4833,511.6391 H 410.5035 V 656.3516 H 309.4833 Z"
         id="path19331" /></clipPath><clipPath
       clipPathUnits="userSpaceOnUse"
       id="clipPath19405"><path
         d="M 0,0 H 504.567 V 720 H 0 Z"
         id="path19403" /></clipPath><clipPath
       clipPathUnits="userSpaceOnUse"
       id="clipPath627"><path
         d="M 4243.4395,511.17504 H 5557.2094 V 2577.7683 H 4243.4395 Z"
         id="path629"
         style="stroke-width:17.1712" /></clipPath><clipPath
       clipPathUnits="userSpaceOnUse"
       id="clipPath633"><path
         d="M 6.0842876e-6,-172.17918 H 1313.7699 V 1894.414 H 6.0842876e-6 Z"
         id="path635"
         style="stroke-width:17.1712" /></clipPath><clipPath
       clipPathUnits="userSpaceOnUse"
       id="clipPath641"><path
         d="M -878.0105,-1870.7144 H 435.7594 V 195.87885 H -878.0105 Z"
         id="path643"
         style="stroke-width:17.1712" /></clipPath><clipPath
       clipPathUnits="userSpaceOnUse"
       id="clipPath647"><path
         d="M -48.640861,-1873.1853 H 1265.129 V 193.4079 H -48.640861 Z"
         id="path649"
         style="stroke-width:17.1712" /></clipPath><clipPath
       clipPathUnits="userSpaceOnUse"
       id="clipPath653"><path
         d="M -878.0105,-1772.8247 H 435.7594 V 293.76847 H -878.0105 Z"
         id="path655"
         style="stroke-width:17.1712" /></clipPath><clipPath
       clipPathUnits="userSpaceOnUse"
       id="clipPath661"><path
         d="M -48.640861,-81.812211 H 1265.129 V 1984.781 H -48.640861 Z"
         id="path663"
         style="stroke-width:17.1712" /></clipPath><clipPath
       clipPathUnits="userSpaceOnUse"
       id="clipPath667"><path
         d="M -694.08962,2.0280968e-6 H 619.68029 V 2066.5932 H -694.08962 Z"
         id="path669"
         style="stroke-width:17.1712" /></clipPath><clipPath
       clipPathUnits="userSpaceOnUse"
       id="clipPath673"><path
         d="M -878.0105,-1968.604 H 435.7594 V 97.98917 H -878.0105 Z"
         id="path675"
         style="stroke-width:17.1712" /></clipPath><clipPath
       clipPathUnits="userSpaceOnUse"
       id="clipPath825"><path
         d="M -48.637253,-113.45017 H 1265.1417 V 1953.143 H -48.637253 Z"
         id="path827"
         style="stroke-width:17.1712" /></clipPath><clipPath
       clipPathUnits="userSpaceOnUse"
       id="clipPath831"><path
         d="M -48.637253,-1705.5342 H 1265.1417 V 361.05905 H -48.637253 Z"
         id="path833"
         style="stroke-width:17.1712" /></clipPath><clipPath
       clipPathUnits="userSpaceOnUse"
       id="clipPath837"><path
         d="M 6.0842883e-5,-841.94406 H 1313.779 V 1224.6492 H 6.0842883e-5 Z"
         id="path839"
         style="stroke-width:17.1712" /></clipPath><clipPath
       clipPathUnits="userSpaceOnUse"
       id="clipPath843"><path
         d="M -470.69168,2.0280968e-6 H 843.08724 V 2066.5932 H -470.69168 Z"
         id="path845"
         style="stroke-width:17.1712" /></clipPath><clipPath
       clipPathUnits="userSpaceOnUse"
       id="clipPath1081"><path
         d="M -625.8756,-398.97495 H 4752.4046 V 2085.9143 H -625.8756 Z"
         id="path1083"
         style="stroke-width:17.1712" /></clipPath><clipPath
       clipPathUnits="userSpaceOnUse"
       id="clipPath1087"><path
         d="M -203.30084,-2006.319 H 5174.9793 V 478.57028 H -203.30084 Z"
         id="path1089"
         style="stroke-width:17.1712" /></clipPath><clipPath
       clipPathUnits="userSpaceOnUse"
       id="clipPath1093"><path
         d="M -203.30084,-475.43319 H 5174.9793 V 2009.4561 H -203.30084 Z"
         id="path1095"
         style="stroke-width:17.1712" /></clipPath><clipPath
       clipPathUnits="userSpaceOnUse"
       id="clipPath1101"><path
         d="M -203.30084,-398.97495 H 5174.9793 V 2085.9143 H -203.30084 Z"
         id="path1103"
         style="stroke-width:17.1712" /></clipPath><clipPath
       clipPathUnits="userSpaceOnUse"
       id="clipPath1107"><path
         d="M -908.81934,-398.97495 H 4469.4608 V 2085.9143 H -908.81934 Z"
         id="path1109"
         style="stroke-width:17.1712" /></clipPath><clipPath
       clipPathUnits="userSpaceOnUse"
       id="clipPath1113"><path
         d="M -1191.6706,-398.97495 H 4186.6096 V 2085.9143 h -5378.2802 z"
         id="path1115"
         style="stroke-width:17.1712" /></clipPath><clipPath
       clipPathUnits="userSpaceOnUse"
       id="clipPath1119"><path
         d="M -203.30084,-1240.919 H 5174.9793 V 1243.9704 H -203.30084 Z"
         id="path1121"
         style="stroke-width:17.1712" /></clipPath><clipPath
       clipPathUnits="userSpaceOnUse"
       id="clipPath1125"><path
         d="M -203.30084,-1623.619 H 5174.9793 V 861.27027 H -203.30084 Z"
         id="path1127"
         style="stroke-width:17.1712" /></clipPath><clipPath
       clipPathUnits="userSpaceOnUse"
       id="clipPath1133"><path
         d="M -203.30084,-398.97495 H 5174.9793 V 2085.9143 H -203.30084 Z"
         id="path1135"
         style="stroke-width:17.1712" /></clipPath><clipPath
       clipPathUnits="userSpaceOnUse"
       id="clipPath1139"><path
         d="M -203.30084,-475.43319 H 5174.9793 V 2009.4561 H -203.30084 Z"
         id="path1141"
         style="stroke-width:17.1712" /></clipPath><clipPath
       clipPathUnits="userSpaceOnUse"
       id="clipPath1145"><path
         d="M -48.637253,-903.15429 H 1265.1417 V 1163.4389 H -48.637253 Z"
         id="path1147"
         style="stroke-width:17.1712" /></clipPath><clipPath
       clipPathUnits="userSpaceOnUse"
       id="clipPath1153"><path
         d="M -251.93816,-398.97495 H 5126.342 V 2085.9143 H -251.93816 Z"
         id="path1155"
         style="stroke-width:17.1712" /></clipPath><clipPath
       clipPathUnits="userSpaceOnUse"
       id="clipPath1159"><path
         d="M -203.30084,-858.12801 H 5174.9793 V 1626.7613 H -203.30084 Z"
         id="path1161"
         style="stroke-width:17.1712" /></clipPath><clipPath
       clipPathUnits="userSpaceOnUse"
       id="clipPath1165"><path
         d="M -203.30084,-2389.0104 H 5174.9793 V 95.878868 H -203.30084 Z"
         id="path1167"
         style="stroke-width:17.1712" /></clipPath><clipPath
       clipPathUnits="userSpaceOnUse"
       id="clipPath17218"><path
         d="M -74.618696,-1613.9645 H 1939.642 V 766.84158 H -74.618696 Z"
         id="path17220"
         style="stroke-width:17.9653" /></clipPath><clipPath
       clipPathUnits="userSpaceOnUse"
       id="clipPath17097"><path
         d="M 0,-198.40383 H 2014.2608 V 2182.4006 H 0 Z"
         id="path17099"
         style="stroke-width:18.0766" /></clipPath></defs><g
     inkscape:label="Ebene 1"
     inkscape:groupmode="layer"
     id="layer1"
     transform="translate(-99.756008,-47.865541)"><path
       d="m 0,0 24.832,-86.86 24.832,-84.91 24.836,-80.99 24.832,-75.84 24.832,-71.2 24.73,-65.741 24.832,-61 24.832,-55.949 24.836,-50.078 24.832,-43.586 24.832,-36.375 24.832,-29.367 24.832,-22.567 24.836,-16.691 24.832,-12.364 24.832,-8.863 24.832,-6.387 24.836,-4.535 24.832,-3.297 24.731,-2.371 24.832,-1.648 24.832,-1.238 24.835,-0.719 24.83,-0.617 24.83,-0.313 24.84,-0.203 24.83,-0.207 24.83,-0.102 24.84,-0.105 h 49.66 l 24.83,-0.102 h 24.84 l 24.73,0.102 h 24.83 l 24.83,0.105 24.84,0.102 24.83,0.102 24.83,0.207 24.84,0.308 24.83,0.309 24.83,0.414 24.83,0.516 24.84,0.41 24.83,0.621 24.83,0.617 24.83,0.824 24.84,1.235 24.73,1.961"
       style="fill:none;stroke:#29d0d0;stroke-width:15.456;stroke-linecap:round;stroke-linejoin:round;stroke-miterlimit:10;stroke-dasharray:none;stroke-opacity:1"
       id="path19007"
       transform="matrix(0.04664735,0,0,-0.04664735,117.20921,107.61021)"
       clip-path="url(#clipPath1145)" /><path
       d="M 0,0 H 988.369"
       style="fill:none;stroke:#000000;stroke-width:7.728;stroke-linecap:round;stroke-linejoin:round;stroke-miterlimit:10;stroke-dasharray:none;stroke-opacity:1"
       id="path19019"
       transform="matrix(0.04664735,0,0,-0.04664735,114.94042,149.73997)"
       clip-path="url(#clipPath1101)" /><path
       d="M 0,0 V -49.047"
       style="fill:none;stroke:#000000;stroke-width:7.728;stroke-linecap:round;stroke-linejoin:round;stroke-miterlimit:10;stroke-dasharray:none;stroke-opacity:1"
       id="path19023"
       transform="matrix(0.04664735,0,0,-0.04664735,117.20921,149.73997)"
       clip-path="url(#clipPath1153)" /><path
       d="M 0,0 V -49.047"
       style="fill:none;stroke:#000000;stroke-width:7.728;stroke-linecap:round;stroke-linejoin:round;stroke-miterlimit:10;stroke-dasharray:none;stroke-opacity:1"
       id="path19027"
       transform="matrix(0.04664735,0,0,-0.04664735,134.65241,149.73997)"
       clip-path="url(#clipPath1081)" /><path
       d="M 0,0 V -49.047"
       style="fill:none;stroke:#000000;stroke-width:7.728;stroke-linecap:round;stroke-linejoin:round;stroke-miterlimit:10;stroke-dasharray:none;stroke-opacity:1"
       id="path19031"
       transform="matrix(0.04664735,0,0,-0.04664735,147.85098,149.73997)"
       clip-path="url(#clipPath1107)" /><path
       d="M 0,0 V -49.047"
       style="fill:none;stroke:#000000;stroke-width:7.728;stroke-linecap:round;stroke-linejoin:round;stroke-miterlimit:10;stroke-dasharray:none;stroke-opacity:1"
       id="path19035"
       transform="matrix(0.04664735,0,0,-0.04664735,161.04524,149.73997)"
       clip-path="url(#clipPath1113)" /><text
       xml:space="preserve"
       style="font-variant:normal;font-weight:normal;font-size:3.84514px;font-family:Arial;-inkscape-font-specification:Arial;writing-mode:lr-tb;fill:#000000;fill-opacity:1;fill-rule:nonzero;stroke:none;stroke-width:0.466472"
       id="text19041"
       x="116.14011"
       y="157.96414"><tspan
         x="116.14011 133.58286 145.71237 147.85025 158.90581 161.0437"
         y="157.96414"
         sodipodi:role="line"
         id="tspan19039"
         style="stroke-width:0.466472">251020</tspan></text><path
       d="M 0,0 V 1913.577"
       style="fill:none;stroke:#000000;stroke-width:7.728;stroke-linecap:round;stroke-linejoin:round;stroke-miterlimit:10;stroke-dasharray:none;stroke-opacity:1"
       id="path19045"
       transform="matrix(0.04664735,0,0,-0.04664735,114.94042,146.1734)"
       clip-path="url(#clipPath1093)" /><path
       d="M 0,0 H -49.047"
       style="fill:none;stroke:#000000;stroke-width:7.728;stroke-linecap:round;stroke-linejoin:round;stroke-miterlimit:10;stroke-dasharray:none;stroke-opacity:1"
       id="path19049"
       transform="matrix(0.04664735,0,0,-0.04664735,114.94042,146.1734)"
       clip-path="url(#clipPath1139)" /><path
       d="M 0,0 H -49.047"
       style="fill:none;stroke:#000000;stroke-width:7.728;stroke-linecap:round;stroke-linejoin:round;stroke-miterlimit:10;stroke-dasharray:none;stroke-opacity:1"
       id="path19053"
       transform="matrix(0.04664735,0,0,-0.04664735,114.94042,128.32169)"
       clip-path="url(#clipPath1159)" /><path
       d="M 0,0 H -49.047"
       style="fill:none;stroke:#000000;stroke-width:7.728;stroke-linecap:round;stroke-linejoin:round;stroke-miterlimit:10;stroke-dasharray:none;stroke-opacity:1"
       id="path19057"
       transform="matrix(0.04664735,0,0,-0.04664735,114.94042,110.46551)"
       clip-path="url(#clipPath1119)" /><path
       d="M 0,0 H -49.047"
       style="fill:none;stroke:#000000;stroke-width:7.728;stroke-linecap:round;stroke-linejoin:round;stroke-miterlimit:10;stroke-dasharray:none;stroke-opacity:1"
       id="path19061"
       transform="matrix(0.04664735,0,0,-0.04664735,114.94042,92.613564)"
       clip-path="url(#clipPath1125)" /><path
       d="M 0,0 H -49.047"
       style="fill:none;stroke:#000000;stroke-width:7.728;stroke-linecap:round;stroke-linejoin:round;stroke-miterlimit:10;stroke-dasharray:none;stroke-opacity:1"
       id="path19065"
       transform="matrix(0.04664735,0,0,-0.04664735,114.94042,74.761622)"
       clip-path="url(#clipPath1087)" /><path
       d="M 0,0 H -49.047"
       style="fill:none;stroke:#000000;stroke-width:7.728;stroke-linecap:round;stroke-linejoin:round;stroke-miterlimit:10;stroke-dasharray:none;stroke-opacity:1"
       id="path19069"
       transform="matrix(0.04664735,0,0,-0.04664735,114.94042,56.910079)"
       clip-path="url(#clipPath1165)" /><text
       xml:space="preserve"
       transform="rotate(-90)"
       style="font-variant:normal;font-weight:normal;font-size:3.84514px;font-family:Arial;-inkscape-font-specification:Arial;writing-mode:lr-tb;fill:#000000;fill-opacity:1;fill-rule:nonzero;stroke:none;stroke-width:0.466472"
       id="text19075"
       x="-148.84578"
       y="109.45605"><tspan
         x="-148.84578 -146.7079 -145.63895 -130.99474 -128.85681 -127.78787 -113.13903 -111.00113 -109.9322 -95.287979 -93.15007 -92.081123 -77.436913 -75.299004 -74.230057 -59.585842 -57.447937 -56.378994"
         y="109.45605"
         sodipodi:role="line"
         id="tspan19073"
         style="stroke-width:0.466472">0.00.51.01.52.02.5</tspan></text><path
       d="M 0,0 H 1313.769 V 2066.594 H 0 V 0"
       style="fill:none;stroke:#000000;stroke-width:7.728;stroke-linecap:round;stroke-linejoin:round;stroke-miterlimit:10;stroke-dasharray:none;stroke-opacity:1"
       id="path19079"
       transform="matrix(0.04664735,0,0,-0.04664735,114.94042,149.73997)"
       clip-path="url(#clipPath1133)" /><text
       xml:space="preserve"
       style="font-variant:normal;font-weight:normal;font-size:3.84514px;font-family:Arial;-inkscape-font-specification:Arial;writing-mode:lr-tb;fill:#000000;fill-opacity:1;fill-rule:nonzero;stroke:none;stroke-width:0.466472"
       id="text19093"
       x="137.67581"
       y="167.10144"><tspan
         x="137.67581 140.02521 140.87883 142.90138 144.82394 145.67754 147.81548 148.66907 149.52271 150.3763 151.44527"
         y="167.10144"
         sodipodi:role="line"
         id="tspan19091"
         style="stroke-width:0.466472">Flexibility</tspan></text><path
       d="m 0,0 24.832,0.102 24.832,0.617 24.836,1.133 24.832,1.546 24.832,1.957 24.73,2.27 24.832,2.473 24.832,2.679 24.836,2.782 24.832,2.781 24.832,3.09 24.832,3.195 24.832,3.402 24.836,3.707 24.832,3.813 24.832,4.226 24.832,4.43 24.836,4.738 24.832,5.051 24.731,5.461 24.832,5.77 24.832,6.183 24.835,6.594 24.83,7.008 24.83,7.418 24.84,7.832 24.83,8.347 24.83,8.965 24.84,9.582 24.83,10.2 24.83,10.82 24.83,11.644 24.84,12.364 24.73,13.394 24.83,14.531 24.83,15.969 24.84,17.727 24.83,19.988 24.83,22.668 24.84,26.379 24.83,30.5 24.83,35.758 24.83,42.241 24.84,50.39 24.83,60.79 24.83,75.74 24.83,98.1 24.84,136.83 24.73,212.78"
       style="fill:none;stroke:#ff9233;stroke-width:15.456;stroke-linecap:round;stroke-linejoin:round;stroke-miterlimit:10;stroke-dasharray:none;stroke-opacity:1"
       id="path19105"
       transform="matrix(0.04664735,0,0,-0.04664735,117.20921,144.44782)"
       clip-path="url(#clipPath825)" /><path
       d="m 0,0 24.832,-86.66 24.832,-84.28 24.836,-79.96 24.832,-74.29 24.832,-69.25 24.73,-63.57 24.832,-58.43 24.832,-53.27 24.836,-47.4 24.832,-40.7 24.832,-33.39 24.832,-26.07 24.832,-19.16 24.836,-13.09 24.832,-8.45 24.832,-4.63 24.832,-1.96 24.836,0.1 24.832,1.86 24.731,2.98 24.832,4.12 24.832,5.05 24.835,5.78 24.83,6.48 24.83,7.12 24.84,7.62 24.83,8.14 24.83,8.86 24.84,9.48 24.83,10.2 24.83,10.72 24.83,11.64 24.84,12.37 24.73,13.39 24.83,14.64 24.83,16.07 24.84,17.82 24.83,20.1 24.83,22.98 24.84,26.58 24.83,30.81 24.83,36.17 24.83,42.66 24.84,50.9 24.83,61.41 24.83,76.35 24.83,98.93 24.84,137.97 24.73,214.84"
       style="fill:none;stroke:#ad2323;stroke-width:15.456;stroke-linecap:round;stroke-linejoin:round;stroke-miterlimit:10;stroke-dasharray:none;stroke-opacity:1"
       id="path19109"
       transform="matrix(0.04664735,0,0,-0.04664735,117.20921,70.181311)"
       clip-path="url(#clipPath831)" /><path
       d="M 0,0 H 1313.769"
       style="fill:none;stroke:#000000;stroke-width:7.728;stroke-linecap:round;stroke-linejoin:round;stroke-miterlimit:10;stroke-dasharray:23.184, 38.64;stroke-dashoffset:0;stroke-opacity:1"
       id="path19113"
       transform="matrix(0.04664735,0,0,-0.04664735,114.94042,110.46551)"
       clip-path="url(#clipPath837)" /><path
       d="M 0,0 V 2066.594"
       style="fill:none;stroke:#000000;stroke-width:7.728;stroke-linecap:round;stroke-linejoin:round;stroke-miterlimit:10;stroke-dasharray:0, 30.912;stroke-dashoffset:0;stroke-opacity:1"
       id="path19117"
       transform="matrix(0.04664735,0,0,-0.04664735,136.89693,149.73997)"
       clip-path="url(#clipPath843)"
       sodipodi:nodetypes="cc" /><path
       d="M 0,0 H 146.94"
       style="fill:none;stroke:#ad2323;stroke-width:23.184;stroke-linecap:round;stroke-linejoin:round;stroke-miterlimit:10;stroke-dasharray:none;stroke-opacity:1"
       id="path19371"
       transform="matrix(0.04664735,0,0,-0.04664735,182.95509,66.801229)"
       clip-path="url(#clipPath673)" /><path
       d="M 0,0 H 146.94"
       style="fill:none;stroke:#29d0d0;stroke-width:23.184;stroke-linecap:round;stroke-linejoin:round;stroke-miterlimit:10;stroke-dasharray:none;stroke-opacity:1"
       id="path19375"
       transform="matrix(0.04664735,0,0,-0.04664735,182.95509,53.345206)"
       clip-path="url(#clipPath641)" /><path
       d="M 0,0 H 146.94"
       style="fill:none;stroke:#ff9233;stroke-width:23.184;stroke-linecap:round;stroke-linejoin:round;stroke-miterlimit:10;stroke-dasharray:none;stroke-opacity:1"
       id="path19379"
       transform="matrix(0.04664735,0,0,-0.04664735,182.95509,57.911492)"
       clip-path="url(#clipPath653)" /><text
       xml:space="preserve"
       style="font-variant:normal;font-weight:normal;font-size:3.84514px;font-family:Arial;-inkscape-font-specification:Arial;writing-mode:lr-tb;fill:#000000;fill-opacity:1;fill-rule:nonzero;stroke:none;stroke-width:0.466472"
       id="text19385"
       x="193.23676"
       y="68.181038"><tspan
         sodipodi:role="line"
         id="tspan19383"
         style="stroke-width:0.466472"
         x="193.23676"
         y="68.181038">test MSE</tspan></text><text
       xml:space="preserve"
       style="font-variant:normal;font-weight:normal;font-size:3.84514px;font-family:Arial;-inkscape-font-specification:Arial;writing-mode:lr-tb;fill:#000000;fill-opacity:1;fill-rule:nonzero;stroke:none;stroke-width:0.466472"
       id="text19391"
       x="193.23676"
       y="54.725014"><tspan
         x="193.23676 195.80148 196.65514 198.79297"
         y="54.725014"
         sodipodi:role="line"
         id="tspan19389"
         style="stroke-width:0.466472">Bias</tspan></text><text
       xml:space="preserve"
       style="font-variant:normal;font-weight:normal;font-size:3.84514px;font-family:Arial;-inkscape-font-specification:Arial;writing-mode:lr-tb;fill:#000000;fill-opacity:1;fill-rule:nonzero;stroke:none;stroke-width:0.466472"
       id="text19397"
       x="193.23676"
       y="59.295979"><tspan
         x="193.23676 195.5323 197.67024"
         y="59.295979"
         sodipodi:role="line"
         id="tspan19395"
         style="stroke-width:0.466472">Var</tspan></text><text
       xml:space="preserve"
       style="font-size:3.04226px;font-family:Arial;-inkscape-font-specification:Arial;fill:#000000;stroke-width:0.359542"
       x="178.20033"
       y="111.56006"
       id="text733"><tspan
         sodipodi:role="line"
         id="tspan731"
         x="178.20033"
         y="111.56006"
         style="stroke-width:0.359542">= 1, because it's simulated data</tspan></text><text
       xml:space="preserve"
       style="font-size:2.52452px;font-family:Arial;-inkscape-font-specification:Arial;fill:#000000;stroke-width:0.298358"
       x="118.3027"
       y="49.703461"
       id="text787"><tspan
         sodipodi:role="line"
         id="tspan785"
         x="118.3027"
         y="49.703461"
         style="stroke-width:0.298358">flexibility for the smallest MSE</tspan></text><path
       style="fill:none;stroke:#000000;stroke-width:0.133961;stroke-dasharray:none;stroke-dashoffset:0"
       d="M 136.90525,53.385318 V 50.903627"
       id="path1232" /><rect
       style="fill:none;stroke:#000000;stroke-width:0.133961;stroke-dasharray:none;stroke-dashoffset:0"
       id="rect2567"
       width="58.256344"
       height="24.052738"
       x="180.47179"
       y="50.399685" /><text
       xml:space="preserve"
       style="font-size:3.0956px;font-family:Arial;-inkscape-font-specification:Arial;fill:#000000;stroke:none;stroke-width:0.0398249;stroke-dasharray:none;stroke-dashoffset:0"
       x="-116.40646"
       y="102.00969"
       id="text2571"
       transform="rotate(-90)"><tspan
         sodipodi:role="line"
         id="tspan2569"
         style="fill:#000000;stroke:none;stroke-width:0.0398249"
         x="-116.40646"
         y="102.00969">Mean Squared Error</tspan></text><path
       d="m 0,0 38.03,-80.51 38.04,-77.6 38.11,-72.94 38.03,-67.42 38.11,-62.55 38.04,-57.45 38.04,-53.53 38.11,-49.82 38.03,-45.53 38.04,-40.72 38.11,-35.06 38.04,-29.45 38.03,-24 38.11,-19.49 38.04,-16.22 38.03,-13.75 38.11,-12.21 38.04,-11.28 38.11,-10.83 38.03,-10.48 38.04,-10.47 38.11,-10.62 38.04,-10.84 38.03,-11.27 38.11,-11.63 38.04,-12.29 38.04,-12.81 38.1,-13.45 38.04,-14.33 38.04,-15.05 38.1,-15.78 38.04,-16.95 38.11,-17.74 38.04,-18.91 38.03,-20.29 38.11,-21.53 38.04,-22.91 38.03,-24.36 38.11,-25.75 38.04,-27.49 38.04,-28.8 38.11,-30.25 38.03,-31.57 38.04,-32.58 38.11,-33.24 38.03,-33.81 38.11,-34.112 38.04,-33.89 38.03,-33.313"
       style="fill:none;stroke:#cd3333;stroke-width:10.8994;stroke-linecap:round;stroke-linejoin:round;stroke-miterlimit:10;stroke-dasharray:10.8994, 32.6981;stroke-dashoffset:0;stroke-opacity:1"
       id="path10913"
       transform="matrix(0.03223967,0,0,-0.03067445,115.62264,90.598846)"
       clip-path="url(#clipPath17218)" /><path
       d="M -5.2187303,-7.7122838 H 200.74444"
       style="fill:none;stroke:#cd3333;stroke-width:10.8994;stroke-linecap:round;stroke-linejoin:round;stroke-miterlimit:10;stroke-dasharray:10.8994, 32.6981;stroke-dashoffset:0;stroke-opacity:1"
       id="path3114"
       transform="matrix(0.03223967,0,0,-0.03067445,183.28241,61.942215)"
       clip-path="url(#clipPath17218)"
       sodipodi:nodetypes="cc" /><text
       xml:space="preserve"
       style="font-variant:normal;font-weight:normal;font-size:3.84514px;font-family:Arial;-inkscape-font-specification:Arial;writing-mode:lr-tb;fill:#000000;fill-opacity:1;fill-rule:nonzero;stroke:none;stroke-width:0.466472"
       id="text3118"
       x="193.23676"
       y="63.375069"><tspan
         sodipodi:role="line"
         id="tspan3116"
         style="stroke-width:0.466472"
         x="193.23676"
         y="63.375069">training MSE</tspan></text><path
       d="M 0,0 H 163.52482"
       style="fill:none;stroke:#000000;stroke-width:7.728;stroke-linecap:round;stroke-linejoin:round;stroke-miterlimit:10;stroke-dasharray:23.184, 38.64;stroke-dashoffset:0;stroke-opacity:1"
       id="path3120"
       transform="matrix(0.04664735,0,0,-0.04664735,182.8681,70.792854)"
       clip-path="url(#clipPath837)"
       sodipodi:nodetypes="cc" /><text
       xml:space="preserve"
       style="font-variant:normal;font-weight:normal;font-size:3.84514px;font-family:Arial;-inkscape-font-specification:Arial;writing-mode:lr-tb;fill:#000000;fill-opacity:1;fill-rule:nonzero;stroke:none;stroke-width:0.466472"
       id="text3124"
       x="193.23676"
       y="72.986977"><tspan
         sodipodi:role="line"
         id="tspan3122"
         style="stroke-width:0.466472"
         x="193.23676"
         y="72.986977">Bayes (irreduceble) error</tspan></text><text
       xml:space="preserve"
       style="font-size:2.58211px;font-family:Arial;-inkscape-font-specification:Arial;fill:#000000;stroke:none;stroke-width:0.0332187;stroke-dasharray:none;stroke-dashoffset:0"
       x="232.22615"
       y="166.60803"
       id="text3254"><tspan
         sodipodi:role="line"
         id="tspan3252"
         style="stroke-width:0.0332187"
         x="232.22615"
         y="166.60803">[ISL]</tspan></text></g></svg>
